<svg width="129" height="129" viewBox="0 0 129 129" fill="none" xmlns="http://www.w3.org/2000/svg">
<g opacity="0.1">
<path opacity="0.1" d="M128.12 125.12V128.12H125.12" stroke="#20263C" stroke-miterlimit="10"/>
<path opacity="0.1" d="M119.36 128.12H6.88" stroke="#20263C" stroke-miterlimit="10" stroke-dasharray="5.77 5.77"/>
<path opacity="0.1" d="M4 128.12H1V125.12" stroke="#20263C" stroke-miterlimit="10"/>
<path opacity="0.1" d="M1 119.35V6.88" stroke="#20263C" stroke-miterlimit="10" stroke-dasharray="5.77 5.77"/>
<path opacity="0.1" d="M1 4V1H4" stroke="#20263C" stroke-miterlimit="10"/>
<path opacity="0.1" d="M9.77002 1H122.24" stroke="#20263C" stroke-miterlimit="10" stroke-dasharray="5.77 5.77"/>
<path opacity="0.1" d="M125.12 1H128.12V4" stroke="#20263C" stroke-miterlimit="10"/>
<path opacity="0.1" d="M128.12 9.76001V122.24" stroke="#20263C" stroke-miterlimit="10" stroke-dasharray="5.77 5.77"/>
</g>
<path d="M49 57.2624L36.5083 50L24 57.2624V71.7541L36.5083 79L49 71.7541V57.2624ZM46.3102 70.1955L36.5083 75.8662L26.7063 70.1955V58.821L36.5083 53.1338L46.3102 58.821V70.1955Z" fill="#414042"/>
<path d="M76 57.2459L63.9921 50L52 57.2459V71.7376L63.9921 79L76 71.7376V57.2459Z" fill="#414042"/>
<path d="M91.4918 50L79 57.2624V71.7541L91.4918 79L104 71.7541V57.2624L91.4918 50ZM101.294 70.1955L91.4918 75.8662L81.6898 70.1955V58.821L91.4918 53.1338L101.294 58.821V70.1955Z" fill="#414042"/>
<path d="M38 81.2624V95.7542L50.5247 103L63 95.7542V81.2624L50.5247 74L38 81.2624ZM60.2643 94.2453L50.5247 99.8662L40.6368 94.2453V82.821L50.5247 77.1338L60.2973 82.821L60.2643 94.2453Z" fill="#414042"/>
<path d="M65 81.2624V95.7542L77.4917 103L90 95.7542V81.2624L77.4917 74L65 81.2624ZM87.2937 94.2453L77.4917 99.916L67.7063 94.2453V82.821L77.4917 77.1338L87.2937 82.821V94.2453Z" fill="#414042"/>
<path d="M63 47.7541V33.2127L50.5413 26L38 33.2127V47.7044L50.5413 55L63 47.7541ZM40.6403 34.8708L50.5413 29.1338L60.2938 34.8708V46.2453L50.5413 51.8662L40.6403 46.1955V34.8708Z" fill="#414042"/>
<path d="M90 47.8039V33.2624L77.4917 26L65 33.2624V47.7541L77.4917 55L90 47.8039ZM67.7063 34.9205L77.4917 29.2333L87.2937 34.9205V46.295L77.4917 51.9657L67.7063 46.295V34.9205Z" fill="#414042"/>
</svg>
