<svg width="399" height="228" viewBox="0 0 399 228" fill="none" xmlns="http://www.w3.org/2000/svg">
<g opacity="0.1">
<path opacity="0.1" d="M398.12 224.12V227.12H395.12" stroke="#20263C" stroke-miterlimit="10"/>
<path opacity="0.1" d="M389.36 227.12H276.88" stroke="#20263C" stroke-miterlimit="10" stroke-dasharray="5.77 5.77"/>
<path opacity="0.1" d="M274 227.12H271V224.12" stroke="#20263C" stroke-miterlimit="10"/>
<path opacity="0.1" d="M271 218.35V105.88" stroke="#20263C" stroke-miterlimit="10" stroke-dasharray="5.77 5.77"/>
<path opacity="0.1" d="M271 103V100H274" stroke="#20263C" stroke-miterlimit="10"/>
<path opacity="0.1" d="M279.77 100H392.24" stroke="#20263C" stroke-miterlimit="10" stroke-dasharray="5.77 5.77"/>
<path opacity="0.1" d="M395.12 100H398.12V103" stroke="#20263C" stroke-miterlimit="10"/>
<path opacity="0.1" d="M398.12 108.76V221.24" stroke="#20263C" stroke-miterlimit="10" stroke-dasharray="5.77 5.77"/>
</g>
<path d="M319 156.262L306.508 149L294 156.262V170.754L306.508 178L319 170.754V156.262ZM316.31 169.196L306.508 174.866L296.706 169.196V157.821L306.508 152.134L316.31 157.821V169.196Z" fill="#414042"/>
<path d="M346 156.246L333.992 149L322 156.246V170.738L333.992 178L346 170.738V156.246Z" fill="#414042"/>
<path d="M361.492 149L349 156.262V170.754L361.492 178L374 170.754V156.262L361.492 149ZM371.294 169.196L361.492 174.866L351.69 169.196V157.821L361.492 152.134L371.294 157.821V169.196Z" fill="#414042"/>
<path d="M308 180.262V194.754L320.525 202L333 194.754V180.262L320.525 173L308 180.262ZM330.264 193.245L320.525 198.866L310.637 193.245V181.821L320.525 176.134L330.297 181.821L330.264 193.245Z" fill="#414042"/>
<path d="M335 180.262V194.754L347.492 202L360 194.754V180.262L347.492 173L335 180.262ZM357.294 193.245L347.492 198.916L337.706 193.245V181.821L347.492 176.134L357.294 181.821V193.245Z" fill="#414042"/>
<path d="M333 146.754V132.213L320.541 125L308 132.213V146.704L320.541 154L333 146.754ZM310.64 133.871L320.541 128.134L330.294 133.871V145.245L320.541 150.866L310.64 145.195V133.871Z" fill="#414042"/>
<path d="M360 146.804V132.262L347.492 125L335 132.262V146.754L347.492 154L360 146.804ZM337.706 133.921L347.492 128.233L357.294 133.921V145.295L347.492 150.966L337.706 145.295V133.921Z" fill="#414042"/>
<g opacity="0.1">
<path opacity="0.1" d="M128.12 125.12V128.12H125.12" stroke="#20263C" stroke-miterlimit="10"/>
<path opacity="0.1" d="M119.36 128.12H6.88" stroke="#20263C" stroke-miterlimit="10" stroke-dasharray="5.77 5.77"/>
<path opacity="0.1" d="M4 128.12H1V125.12" stroke="#20263C" stroke-miterlimit="10"/>
<path opacity="0.1" d="M1 119.35V6.88" stroke="#20263C" stroke-miterlimit="10" stroke-dasharray="5.77 5.77"/>
<path opacity="0.1" d="M1 4V1H4" stroke="#20263C" stroke-miterlimit="10"/>
<path opacity="0.1" d="M9.77002 1H122.24" stroke="#20263C" stroke-miterlimit="10" stroke-dasharray="5.77 5.77"/>
<path opacity="0.1" d="M125.12 1H128.12V4" stroke="#20263C" stroke-miterlimit="10"/>
<path opacity="0.1" d="M128.12 9.76001V122.24" stroke="#20263C" stroke-miterlimit="10" stroke-dasharray="5.77 5.77"/>
</g>
<path d="M49 57.2624L36.5083 50L24 57.2624V71.7541L36.5083 79L49 71.7541V57.2624ZM46.3102 70.1955L36.5083 75.8662L26.7063 70.1955V58.821L36.5083 53.1338L46.3102 58.821V70.1955Z" fill="#414042"/>
<path d="M76 57.2459L63.9921 50L52 57.2459V71.7376L63.9921 79L76 71.7376V57.2459Z" fill="#414042"/>
<path d="M91.4918 50L79 57.2624V71.7541L91.4918 79L104 71.7541V57.2624L91.4918 50ZM101.294 70.1955L91.4918 75.8662L81.6898 70.1955V58.821L91.4918 53.1338L101.294 58.821V70.1955Z" fill="#414042"/>
<path d="M38 81.2624V95.7542L50.5247 103L63 95.7542V81.2624L50.5247 74L38 81.2624ZM60.2643 94.2453L50.5247 99.8662L40.6368 94.2453V82.821L50.5247 77.1338L60.2973 82.821L60.2643 94.2453Z" fill="#414042"/>
<path d="M65 81.2624V95.7542L77.4917 103L90 95.7542V81.2624L77.4917 74L65 81.2624ZM87.2937 94.2453L77.4917 99.916L67.7063 94.2453V82.821L77.4917 77.1338L87.2937 82.821V94.2453Z" fill="#414042"/>
<path d="M63 47.7541V33.2127L50.5413 26L38 33.2127V47.7044L50.5413 55L63 47.7541ZM40.6403 34.8708L50.5413 29.1338L60.2938 34.8708V46.2453L50.5413 51.8662L40.6403 46.1955V34.8708Z" fill="#414042"/>
<path d="M90 47.8039V33.2624L77.4917 26L65 33.2624V47.7541L77.4917 55L90 47.8039ZM67.7063 34.9205L77.4917 29.2333L87.2937 34.9205V46.295L77.4917 51.9657L67.7063 46.295V34.9205Z" fill="#414042"/>
<line x1="32.0123" y1="112" x2="359.012" y2="114.006" stroke="#636467" stroke-width="4"/>
<line x1="114" y1="88" x2="114" y2="55" stroke="#E5D7D7" stroke-width="2"/>
<line x1="128" y1="88" x2="128" y2="55" stroke="#E5D7D7" stroke-width="2"/>
<line x1="133.051" y1="87.6838" x2="144.051" y2="54.6838" stroke="#E5D7D7" stroke-width="2"/>
<line x1="144.949" y1="54.6838" x2="155.949" y2="87.6838" stroke="#E5D7D7" stroke-width="2"/>
<line x1="139" y1="70" x2="150" y2="70" stroke="#E5D7D7" stroke-width="2"/>
<path d="M114 55.5L121 71L128 55.5" stroke="#E5D7D7" stroke-width="2"/>
<circle cx="180" cy="71" r="17" fill="#E5D7D7"/>
<ellipse cx="180" cy="71.5" rx="15" ry="13.5" fill="#111111"/>
<path d="M186.215 75.4113L196 86L203.215 88.4113" stroke="#E5D7D7" stroke-width="4"/>
<path d="M208 53.5C208.53 99.1288 229.446 101.598 229 53.5" stroke="#E5D7D7" stroke-width="2"/>
<line x1="237.5" y1="54" x2="237.5" y2="88" stroke="#E5D7D7" stroke-width="3"/>
<path d="M245 88V54L251.5 71L258 88V54.5574" stroke="#E5D7D7" stroke-width="3"/>
<path d="M266 87.5L277.5 54L292 87.5" stroke="#E5D7D7" stroke-width="3"/>
<line x1="271" y1="69.5" x2="285" y2="69.5" stroke="#E5D7D7" stroke-width="3"/>
<path d="M232 175.5L243.5 142L258 175.5" stroke="#E5D7D7" stroke-width="3"/>
<line x1="237" y1="157.5" x2="251" y2="157.5" stroke="#E5D7D7" stroke-width="3"/>
<path d="M136 175.5L147.5 142L162 175.5" stroke="#E5D7D7" stroke-width="3"/>
<line x1="141" y1="157.5" x2="155" y2="157.5" stroke="#E5D7D7" stroke-width="3"/>
<line x1="174.5" y1="97" x2="174.5" y2="134" stroke="#E5D7D7" stroke-width="5"/>
<path d="M176 99.5C201 104 203.5 130.5 175.5 131.5" stroke="#E5D7D7" stroke-width="5"/>
<path d="M280 139C255.003 138.99 299.5 176.5 270.001 174.04" stroke="#E5D7D7" stroke-width="3"/>
<path d="M226 140H203V173H226" stroke="#E5D7D7" stroke-width="3"/>
<line x1="203" y1="156" x2="218" y2="156" stroke="#E5D7D7" stroke-width="4"/>
<path d="M168 140V173" stroke="#E5D7D7" stroke-width="3"/>
<line x1="168.329" y1="155.505" x2="186.329" y2="171.505" stroke="#E5D7D7" stroke-width="4"/>
<path d="M167.5 141.5C196.5 141.5 194.5 155.5 167.5 153" stroke="#E5D7D7" stroke-width="3"/>
<line x1="93" y1="139.5" x2="129" y2="139.5" stroke="#E5D7D7" stroke-width="3"/>
<line x1="109.5" y1="139" x2="109.5" y2="174" stroke="#E5D7D7" stroke-width="5"/>
</svg>
